<svg preserveAspectRatio="none" overflow="visible" style="display: block;" width="38.3161" height="60" viewBox="0 0 38.3161 60" fill="none" xmlns="http://www.w3.org/2000/svg">
<g id="Group 60">
<path id="Vector" d="M30.4075 11.7493C30.4075 5.53649 25.371 0.5 19.1582 0.5C12.9453 0.5 7.90885 5.53649 7.90885 11.7493V29.4724C7.90885 35.6852 12.9453 40.7217 19.1582 40.7217C25.371 40.7217 30.4075 35.6852 30.4075 29.4724V11.7493Z" stroke="white" stroke-miterlimit="10"/>
<path id="Vector_2" d="M37.8161 29.9117C37.8161 40.2162 29.4626 48.5697 19.1581 48.5697C8.85355 48.5697 0.5 40.2162 0.5 29.9117" stroke="white" stroke-miterlimit="10"/>
<path id="Vector_3" d="M5.1185 59.5H33.6173" stroke="white" stroke-miterlimit="10"/>
<path id="Vector_4" d="M19.1581 48.5695V59.4998" stroke="white" stroke-miterlimit="10"/>
<path id="Vector_5" d="M7.90885 11.7493H14.5544" stroke="white" stroke-miterlimit="10"/>
<path id="Vector_6" d="M23.7643 11.7493H30.4073" stroke="white" stroke-miterlimit="10"/>
<path id="Vector_7" d="M7.90885 20.6113H14.5544" stroke="white" stroke-miterlimit="10"/>
<path id="Vector_8" d="M23.7643 20.6113H30.4073" stroke="white" stroke-miterlimit="10"/>
<path id="Vector_9" d="M7.90885 29.9117H14.5544" stroke="white" stroke-miterlimit="10"/>
<path id="Vector_10" d="M23.7643 29.9117H30.4073" stroke="white" stroke-miterlimit="10"/>
</g>
</svg>
