<svg width="389" height="343" viewBox="0 0 389 343" fill="none" xmlns="http://www.w3.org/2000/svg">
<rect width="389" height="343" fill="#E5E5E5"/>
<g id="Component 13">
<rect x="-18.3945" y="-87.395" width="956.19" height="525.461" rx="4.5" stroke="#7B61FF" stroke-dasharray="10 5"/>
<g id="Property 1=Group 5">
<path id="Vector" d="M314.341 147.089L315.105 22.0628C315.165 13.3653 307.34 6.76671 298.84 8.3371L176.091 31.153C170.889 32.1194 166.691 36 165.312 41.1491L142.09 126.886C141.521 129 140.456 130.948 138.987 132.563L60.6875 219.237C55.9952 224.431 55.9053 232.343 60.4627 237.643L146.123 337.317C150.8 342.753 158.836 343.689 164.622 339.461L269.681 262.649C271.87 261.048 273.534 258.843 274.479 256.307L313.456 151.891C314.026 150.351 314.326 148.735 314.341 147.089Z" fill="#CFE3E8"/>
<path id="Vector_2" d="M285.203 28.1158L169.459 1.8406C164.153 0.631847 158.606 0.918926 153.452 2.6565L12.5966 50.1755C1.77435 53.8168 -2.37063 66.962 4.38197 76.1787L93.6127 198.081C97.9838 204.064 103.923 208.703 110.75 211.528L177.025 238.846C178.879 239.617 180.673 240.508 182.376 241.551L317.775 323.655C327.21 329.381 339.495 324.622 342.645 314.03L386.145 168.013C388.225 161.033 386.883 153.493 382.543 147.661L301.285 38.5866C297.336 33.2832 291.639 29.5663 285.203 28.1158Z" stroke="#8686F2" stroke-width="2.21" stroke-miterlimit="10"/>
</g>
</g>
</svg>
